<svg xmlns="http://www.w3.org/2000/svg" viewBox="0 0 17.47 22.33"><defs><style>.cls-1{fill:#4e514e;}</style></defs><g id="Calque_2" data-name="Calque 2"><g id="Calque_1-2" data-name="Calque 1"><g id="hobbies"><g id="botanique"><path class="cls-1" d="M17.47,13.75a7.23,7.23,0,0,1-.95,1.72,4.66,4.66,0,0,1-1.13,1.1,5.31,5.31,0,0,1-1.23.58,4.1,4.1,0,0,1-1.27.18,9.39,9.39,0,0,1-1.2-.11A5.69,5.69,0,0,1,10.61,17l-.86-.34a3.85,3.85,0,0,1-.58-.29L9,16.2a12.22,12.22,0,0,1-3.61,4.48A7.92,7.92,0,0,1,.56,22.33a.54.54,0,0,1-.4-.16.54.54,0,0,1-.16-.4.5.5,0,0,1,.16-.39.54.54,0,0,1,.4-.16,6.83,6.83,0,0,0,4-1.34,10.52,10.52,0,0,0,3.13-3.67,7.69,7.69,0,0,1-.89.29,6.92,6.92,0,0,1-1,.16,5.29,5.29,0,0,1-1.13,0,4.35,4.35,0,0,1-1.16-.35,4.89,4.89,0,0,1-1.15-.74,6,6,0,0,1-1-1.25,10,10,0,0,1-.93-1.82A9.84,9.84,0,0,1,3,11.76a6,6,0,0,1,2.09.1,4.93,4.93,0,0,1,1.55.7,5.75,5.75,0,0,1,1.1,1,7.09,7.09,0,0,1,.7,1,17.07,17.07,0,0,0,1-3.62l-.23,0-.58,0a8.19,8.19,0,0,1-.86,0,7.66,7.66,0,0,1-1-.12,7.07,7.07,0,0,1-1.1-.29,5.18,5.18,0,0,1-1-.53,4.27,4.27,0,0,1-.93-.81A4,4,0,0,1,3,8a5.46,5.46,0,0,1-.36-1.58A6.77,6.77,0,0,1,4.32,6a4.34,4.34,0,0,1,1.4,0,4.85,4.85,0,0,1,1.15.38A3.32,3.32,0,0,1,7.78,7a7.08,7.08,0,0,1,.7.76A4.41,4.41,0,0,1,9,8.55c.14.27.25.5.35.7s.15.37.2.5l0,.19q.15-1.51.15-2.43l-.27-.19a6.68,6.68,0,0,1-.61-.56,7.2,7.2,0,0,1-.79-.89A6.13,6.13,0,0,1,7.4,4.71,4.86,4.86,0,0,1,7,3.31a4,4,0,0,1,.15-1.58A5.22,5.22,0,0,1,8,0,6.53,6.53,0,0,1,9.6.77a4.11,4.11,0,0,1,1.05,1,4.65,4.65,0,0,1,.6,1.06,3.45,3.45,0,0,1,.26,1.11A7.47,7.47,0,0,1,11.5,5a4.58,4.58,0,0,1-.16,1c-.08.29-.16.55-.24.77a2.76,2.76,0,0,1-.21.52l-.09.19a5.34,5.34,0,0,1,0,.63c0,.38,0,.67,0,.89l.13-.23c.06-.1.18-.27.38-.54a5.42,5.42,0,0,1,.63-.72,5.87,5.87,0,0,1,.88-.69A5,5,0,0,1,14,6.17,4.86,4.86,0,0,1,15.36,6a5.49,5.49,0,0,1,1.65.3,6.85,6.85,0,0,1-.27,1.77,4.37,4.37,0,0,1-.62,1.3,4.32,4.32,0,0,1-.87.89,3.78,3.78,0,0,1-1,.57c-.36.12-.71.22-1.06.3a5,5,0,0,1-1,.11c-.32,0-.6,0-.84,0a5.71,5.71,0,0,1-.58-.05l-.21,0a19.66,19.66,0,0,1-.91,3.53l.22-.24c.1-.09.3-.26.62-.51a8.52,8.52,0,0,1,1-.65,6.09,6.09,0,0,1,1.24-.52,5.1,5.1,0,0,1,1.47-.25,4.73,4.73,0,0,1,1.6.29A5.68,5.68,0,0,1,17.47,13.75Z"/></g></g></g></g></svg>