<svg xmlns="http://www.w3.org/2000/svg" viewBox="0 0 48.53 61.75"><defs><style>.cls-1{fill:#b3a48d;}.cls-2,.cls-5{fill:#e2d43d;}.cls-2{fill-opacity:0.4;opacity:0.6;}.cls-3{fill:#ba9f41;}.cls-4{fill:#a08533;}.cls-6{fill:#f3cc39;}</style></defs><g id="Calque_2" data-name="Calque 2"><g id="Calque_1-2" data-name="Calque 1"><rect class="cls-1" x="19.24" y="44.73" width="17.06" height="17.02"/><rect class="cls-1" x="25.22" y="44.73" width="5.11" height="2.51"/><rect class="cls-1" x="19" y="25.44" width="17.53" height="19.29"/><path class="cls-1" d="M36.35,26.42V37.66H19.18V26.42H36.35m4.94-7.07h-27V44.73h27V19.35Z"/><rect class="cls-1" x="21.3" y="44.73" width="12.94" height="10.47"/><circle class="cls-2" cx="24.27" cy="24.27" r="24.27"/><path class="cls-1" d="M34.64,32.77v7.84h-6V32.77ZM17.47,40.61V32.77h6v7.84Z"/><rect class="cls-3" x="14.28" y="41.61" width="17.45" height="17.02"/><rect class="cls-4" x="20.45" y="41.61" width="5.11" height="6.24"/><rect class="cls-5" x="14.24" y="22.32" width="17.53" height="19.29"/><path class="cls-6" d="M31.59,23.3V34.54H14.42V23.3H31.59m4.94-7.07h-27V41.61h27V16.23Z"/><rect class="cls-6" x="14.31" y="41.61" width="17.39" height="10.47"/></g></g></svg>