<svg xmlns="http://www.w3.org/2000/svg" viewBox="0 0 54.46 78.34"><defs><style>.cls-1{font-size:10px;fill:#231f20;font-family:RetroGaming;letter-spacing:-0.01em;}.cls-2{fill:#b3a48d;}.cls-3,.cls-6{fill:#e2d43d;}.cls-3{fill-opacity:0.4;opacity:0.6;}.cls-4{fill:#ba9f41;}.cls-5{fill:#a08533;}.cls-7{fill:#f3cc39;}</style></defs><g id="Calque_2" data-name="Calque 2"><g id="Calque_1-2" data-name="Calque 1"><text class="cls-1" transform="translate(0 75.05)">Créativité</text><rect class="cls-2" x="25.16" y="44.73" width="17.06" height="17.02"/><rect class="cls-2" x="31.14" y="44.73" width="5.11" height="2.51"/><rect class="cls-2" x="24.93" y="25.44" width="17.53" height="19.29"/><path class="cls-2" d="M42.28,26.42V37.66H25.11V26.42H42.28m4.94-7.07h-27V44.73h27V19.35Z"/><rect class="cls-2" x="27.23" y="44.73" width="12.94" height="10.47"/><circle class="cls-3" cx="30.19" cy="24.27" r="24.27"/><path class="cls-2" d="M40.57,32.77v7.84h-6V32.77ZM23.4,40.61V32.77h6v7.84Z"/><rect class="cls-4" x="20.21" y="41.61" width="17.45" height="17.02"/><rect class="cls-5" x="26.38" y="41.61" width="5.11" height="6.24"/><rect class="cls-6" x="20.17" y="22.32" width="17.53" height="19.29"/><path class="cls-7" d="M37.52,23.3V34.54H20.35V23.3H37.52m4.93-7.07h-27V41.61h27V16.23Z"/><rect class="cls-7" x="20.24" y="41.61" width="17.39" height="10.47"/></g></g></svg>