<svg xmlns="http://www.w3.org/2000/svg" viewBox="0 0 26.37 36.73"><defs><style>.cls-1{fill:#d2263c;}.cls-2{fill:#203464;}.cls-3{fill:#f9f8f8;}.cls-4{fill:#b7c2c0;}</style></defs><g id="Calque_2" data-name="Calque 2"><g id="Calque_1-2" data-name="Calque 1"><path class="cls-1" d="M14.69,22.57c-.81,0-1.87.57-2.19-.83,0-.09-.5-.08-.77-.11,0-2.6,0-5.21,0-7.81,0-.74-.17-1.05-1-1-.32,0-.93.26-.95-.3,0-.76-.48-.64-.94-.64-2,0-4,0-5.94,0-.79,0-1.08.22-.88,1l0,0-2,0,0-3c.77-.17,2.07.7,2.06-1,2.24,0,4.49,0,6.73.06.33,0,.87-.25.94.35.13,1.09.94.54,1.43.58.79.06.5-.64.5-1,0-2.56,0-5.11,0-7.67.47,0,.84-.16,1.09.58s1.21.15,1.81.37a.39.39,0,0,0,.08.21c0,2.5,0,5,0,7.52,0,.32-.18.67.12,1l.49,0,.28.08.12.76c.12.32.36.19.57.15h.52l.09.05.08,0H23.8c.29,0,.66.2.59-.36l.07-.53,0,0c.32-.15.92.15.94-.41,0-.78.55-.58,1-.62l0,2.9c-.79-.15-1,.22-.93,1l0,0c-.37.14-1-.2-1,.61,0,.5-.37.41-.66.41H16.35c-.28,0-.69.11-.7-.37s-.15-.68-.62-.59-.34.53-.34.84Q14.68,18.63,14.69,22.57Z"/><path class="cls-2" d="M15.7,3.07h8.65l.12.92c-.62,0-1.24,0-.95.92-.35.17-1-.19-1.05.33,0,.73-.58.63-.92.87L21.44,7c-.35,0-.69,0-1,0-.83-.13-1,.28-.84,1-.73.23-2-.71-2.07,1-.71-.12-1.06.12-.89.89l-.31.12c-.44,0-.68-.15-.67-.67C15.68,7.2,15.68,5.14,15.7,3.07Z"/><path class="cls-2" d="M0,8.93C0,7.29,0,5.65,0,4A4.6,4.6,0,0,1,.94,4c.83.18,1.2-.14,1.14-1H4.89c-.07.66,0,1.19.9,1a2,2,0,0,0,2.1,1.86v.43s-.06.06-.06.08a1.06,1.06,0,0,0,.06.19c0,.8.65.28,1,.45.08.73-.21,1-1,1-1.7-.06-3.4,0-5.11,0C2.3,8,1.88,8,2,8.61,1.43,9.14.69,8.84,0,8.93Z"/><path class="cls-2" d="M0,18.73v-5a4.59,4.59,0,0,1,.91,0c.83.18,1.18-.15,1.16-1l0,0c1.94,0,3.87,0,5.81,0,.75,0,1.06.21,1,.95-.31.17-.94-.34-1,.45-.09.16-.14.39-.27.46A2.62,2.62,0,0,0,6,16.76c-.8-.15-1.27.08-1.1,1a13.78,13.78,0,0,0-2.8,0c-.32.23,0,.63-.24.9Z"/><path class="cls-2" d="M26.33,13.82c0,1.63,0,3.25,0,4.87-.77-.14-1.08.17-.94.94l0,0c-.56,0-1.2,0-1,.89a.24.24,0,0,0-.2.08l-2.79.22c.21-.82,0-1.27-.94-1.16.21-.83-.18-1.06-.93-.94.11-.73-.07-1.17-.93-.93-.18-.31.27-.89-.42-1a.72.72,0,0,1-.64-.65c.47-.63,1.15-.19,1.71-.32,1.85-.43,3.95.92,5.67-.94a2.14,2.14,0,0,0,.46-1.09l0,0Z"/><path class="cls-3" d="M4.9,20.68C2,20.71,2,20.71,2,23.59c0,4,0,8.05,0,12.08,0,.89-.22,1.26-1.12.95q0-6.91,0-13.83c0-.63,0-1.22-.86-1.12,0-.32,0-.64,0-1H1.34l.7-.17c0-.26,0-.53,0-.79l2.81-.14Z"/><path class="cls-2" d="M4.9,20.68c0-.35,0-.71,0-1.07v0c.9.26,1-.22.93-.95l.93,0c.39-.22.11-.62.25-.91.75.16,1-.17.88-.89h.07v-.08c.71.14,1.05-.09.87-.85l.09,0,0-.09c.7.16,1.08,0,.91-.82.82-.15,1,.21,1,1-.06,1.89,0,3.79,0,5.69-.26,0-.74,0-.76-.06-.37-1.43-1.51-.78-2.33-.86S5.82,20.69,4.9,20.68Z"/><path class="cls-3" d="M25.41,13.78A2.14,2.14,0,0,1,25,14.87c-1.72,1.86-3.82.51-5.67.94-.56.13-1.24-.31-1.71.32s-.62.7-.85-.07a.6.6,0,0,0-.72-.41c-.3,0-.35.2-.31.48s-.22.71.37.73.37.55.46.87c-.68-.09-.92.15-.89.89,0,1.33,0,2.67-.05,4l-.89-.06q0-3.94,0-7.89c0-.31-.18-.74.34-.84s.6.16.62.59.42.37.7.37h7.42c.29,0,.68.09.66-.41C24.39,13.58,25,13.92,25.41,13.78Z"/><path class="cls-2" d="M15.58,22.63c0-1.34.1-2.68.05-4,0-.74.21-1,.89-.89l0,.05h.06c-.13.7.06,1.1.86.91a2.85,2.85,0,0,0,2.12,2.1c-.25.87.32.93.93.95l0,0c0,.52-.09,1.11.76.89a.26.26,0,0,0,.17.05l0,.92c-1.62,0-3.25,0-4.87,0C15.84,23.63,15.53,23.37,15.58,22.63Z"/><path class="cls-2" d="M4.91.13c1.11,0,2.23,0,3.34,0,.65,0,1.51-.34,1.68.81,0,.13.53.19.82.29,0,1.3-.05,2.61,0,3.91,0,.79-.29,1-1,1,.27-1.17-.94-1.36-1.41-2S7.19,3.18,6.94,2.55s-.54-.39-.89-.41c-.17-.27,0-.65-.24-.89s-.58-.08-.87-.08A.12.12,0,0,0,4.89,1Z"/><path class="cls-3" d="M15.7,3.07c0,2.07,0,4.13-.07,6.2,0,.52.23.67.67.67.31.37,0,1.25,1,1.08.65-.12.3-.8.65-1.07l1,0h.17l.51-.15h0l-.06.07,0,.09c-.08.69.17.93.9.91,1.34-.05,2.68,0,4,.05,0,.18-.05.35-.07.53l-.59.36H17c0-.1-.11-.11-.17,0h-.52c-.15-.19-.36-.16-.57-.15l-.12-.76a.18.18,0,0,0-.28-.08l-.48,0c0-.33.14-.66-.13-1,0-2.51,0-5,0-7.52l.19-.21C15.74,2,15.61,2.61,15.7,3.07Z"/><path class="cls-3" d="M9.77,6.1c.7.06,1-.18,1-1-.06-1.3,0-2.61,0-3.91l1,0c0,2.56,0,5.11,0,7.67,0,.38.29,1.08-.5,1-.49,0-1.3.51-1.43-.58-.07-.6-.61-.35-.94-.35-2.24,0-4.49,0-6.73-.06,0-.09,0-.18-.08-.27C1.88,8,2.3,8,2.76,8c1.71,0,3.41,0,5.11,0,.77,0,1.06-.22,1-1h.92c.12.3-.25.8.34.92a.74.74,0,0,0,.53-.09.49.49,0,0,0,.09-.62c-.22-.46-.63-.22-1-.19l0-1Z"/><path class="cls-3" d="M10.75,21.65c0-1.9,0-3.8,0-5.69,0-.8-.18-1.16-1-1h0c.1-.72,0-1.32-.94-1.18h0c.09-.74-.22-1-1-.95-1.94.06-3.87,0-5.81,0-.2-.76.09-1,.88-1,2,0,4,0,5.94,0,.46,0,.9-.12.94.64,0,.56.63.33.95.3.79-.07,1,.24,1,1,0,2.6,0,5.21,0,7.81Z"/><path class="cls-2" d="M24.46,11c-1.34,0-2.68-.1-4-.05-.73,0-1-.22-.9-.91l1.16-.1h.51c.12.1.17.05.18-.09a1.38,1.38,0,0,0,0-.92,1.41,1.41,0,0,0,.93-.05c.32-.23.08-.62.24-.89,1,.2.95-1.22,1.81-1.25-.28-.92,1-.42,1-1.06-.05-.81.53-.56.93-.61,0,1.3,0,2.59,0,3.89-.68-.1-1.12.06-.91.88-.85,0-1.27.27-1,1.18Z"/><path class="cls-4" d="M.08,21.67c.89-.1.86.49.86,1.12q0,6.91,0,13.83C.42,36.71,0,36.71,0,36Q0,28.83.08,21.67Z"/><path class="cls-3" d="M26.31,5c-.4,0-1-.2-.93.61.05.64-1.25.14-1,1.06-.86,0-.78,1.45-1.81,1.25a1.6,1.6,0,0,1,.71-1.55c.59-.39.77-.91.21-1.49-.29-.94.33-.93.95-.92h0a5.29,5.29,0,0,0-.05.56c0,.28-.08.63.41.62s.61-.2.58-.62a5.19,5.19,0,0,1,0-.56l0,0,.94,0Z"/><path class="cls-3" d="M4.91.13l0,.84C4.58,1,4.24.89,4,1.12c-.42,0-.83,0-1.24,0S2,1.16,2,1.7l-.09.37H.1c0-.29-.15-.86.08-.82C1.66,1.5,2.43-.48,4,.11A2.82,2.82,0,0,0,4.91.13Z"/><path class="cls-3" d="M21.47,23.56l0-.92h3c.09.71-.16,1-.93,1S22.15,23.57,21.47,23.56Z"/><path class="cls-4" d="M2,8.61c0,.09.05.18.08.27,0,1.73-1.29.86-2.06,1l0-1C.69,8.84,1.43,9.14,2,8.61Z"/><path class="cls-1" d="M2,20.54l-.7.17H.12l0-1.08,1.77,0Z"/><path class="cls-1" d="M26.31,19.65a1.08,1.08,0,0,1-.18,1.08c-.73,0-.79.44-.75,1v0l-.93,0v-.93c.93.1.95-.53.95-1.19l0,0Z"/><path class="cls-3" d="M2.08,3.05c.06.84-.31,1.16-1.14,1A4.6,4.6,0,0,0,0,4l.06-.89H2l0-.07Z"/><path class="cls-3" d="M2.1,12.84c0,.82-.33,1.15-1.16,1a4.59,4.59,0,0,0-.91,0c0-.3,0-.6.05-.9Z"/><path class="cls-3" d="M24.47,4l-.12-.92c0-.69.24-1.14,1-1,0,.63,0,1.26,0,1.89l0,0h-.94Z"/><path class="cls-3" d="M1.86,19.6l-1.77,0L0,18.73l1.82,0C1.86,19,1.86,19.3,1.86,19.6Z"/><path class="cls-1" d="M2,3.13H.09c0-.35,0-.69,0-1H1.87Z"/><path class="cls-1" d="M25.38,4c0-.63,0-1.26,0-1.89v0l.93,0V4.06Z"/><path class="cls-4" d="M24.44,11c-.3-.91.12-1.22,1-1.18l.91,0a.29.29,0,0,1,0,.18c-.42,0-.94-.16-1,.62C25.36,11.14,24.76,10.84,24.44,11Z"/><path class="cls-3" d="M24.46,21.72l.93,0c.14.77-.23,1-.94.94h0l0-.92Z"/><path class="cls-3" d="M26.31,19.65l-.93,0c-.14-.77.17-1.08.94-.94C26.32,19,26.32,19.33,26.31,19.65Z"/><path class="cls-3" d="M26.32,2.11l-.93,0c.1-.35-.28-1,.46-1S26.3,1.73,26.32,2.11Z"/><path class="cls-3" d="M26.33,13.82h-.94c-.11-.73.14-1.1.93-1Z"/><path class="cls-3" d="M26.32,9.78l-.91,0c-.21-.82.23-1,.91-.88Z"/><path class="cls-3" d="M25.38,21.72c0-.55,0-1,.75-1C26.45,21.6,26.45,21.6,25.38,21.72Z"/><path class="cls-4" d="M14.9,2.13l-.19.21a.39.39,0,0,1-.08-.21Z"/><path class="cls-4" d="M23.8,11.85l.59-.36C24.46,12.05,24.09,11.89,23.8,11.85Z"/><path class="cls-4" d="M14.7,9.86c.27.29.15.62.13,1C14.52,10.53,14.67,10.18,14.7,9.86Z"/><path class="cls-4" d="M15.71,11.7c.21,0,.42,0,.57.15C16.07,11.89,15.83,12,15.71,11.7Z"/><path class="cls-4" d="M15.31,10.86a.18.18,0,0,1,.28.08Z"/><path class="cls-4" d="M16.8,11.84c.06-.1.12-.09.17,0l-.08,0Z"/><path class="cls-3" d="M21.43,8.9a1.38,1.38,0,0,1,0,.92.14.14,0,0,0-.18.09H20.7a1.89,1.89,0,0,0-1.13-.06h0c0-.58,0-1.14-.91-.74a.9.9,0,0,1-1-.21l-.23,0,0,0c.07-1.67,1.34-.73,2.07-1V8c-.12.68,0,1.12.86,1,.33,0,.68,0,1,0Z"/><path class="cls-4" d="M23.52,4.92c.56.58.38,1.1-.21,1.49A1.6,1.6,0,0,0,22.6,8c-.16.27.08.66-.24.89,0-.28,0-.56,0-.84l0-1.09c0-.59-.23-.86-.82-.8.34-.24.89-.14.92-.87C22.49,4.73,23.17,5.09,23.52,4.92Z"/><path class="cls-3" d="M19.57,8c-.15-.7,0-1.11.84-1,.34,0,.68,0,1,0l0,0V8l0,0H19.56Z"/><path class="cls-4" d="M17.93,10c-.35.27,0,1-.65,1.07-.94.17-.67-.71-1-1.08l.31-.12.82,0Z"/><path class="cls-3" d="M21.55,6.12c.59-.06.86.21.82.8l-.95.1,0,0Z"/><path class="cls-3" d="M17.43,9.84l-.82,0c-.17-.77.18-1,.89-.89l0,0,.05.48Z"/><path class="cls-3" d="M6.05,2.14c.35,0,.66-.17.89.41s1,1,1.42,1.51,1.68.87,1.41,2h0C9,6,8.63,6.2,8.84,7h0c-.31-.17-.94.35-1-.45v-.7a1.25,1.25,0,0,0-.45-1.39A11.37,11.37,0,0,1,5.93,2.83V2.37Z"/><path class="cls-4" d="M5.93,2.83A11.37,11.37,0,0,0,7.44,4.49a1.25,1.25,0,0,1,.45,1.39A2,2,0,0,1,5.79,4l0-.84Z"/><path class="cls-3" d="M4.89,3.06H2.08c0-.27,0-.55,0-.83a13.29,13.29,0,0,1,2.82-.08l0,0v.95Z"/><path class="cls-3" d="M5.82,3.18l0,.84c-.88.23-1-.3-.9-1h0Z"/><path class="cls-4" d="M7.89,6.31v.27a1.06,1.06,0,0,1-.06-.19S7.87,6.34,7.89,6.31Z"/><path class="cls-4" d="M7,17.73c-.14.29.14.69-.25.91A3.39,3.39,0,0,0,6,16.76,2.62,2.62,0,0,1,7.62,14.7c.13-.07.18-.3.27-.46-.11.79.73,1,1,1.53l0,.09-.09,0c-.65-.08-1,.19-.87.85v.08H7.87C7.18,16.75,6.91,17.07,7,17.73Z"/><path class="cls-3" d="M2.09,17.81a13.78,13.78,0,0,1,2.8,0h0v.95l0,0-2.78,0Z"/><path class="cls-3" d="M6,16.76a3.39,3.39,0,0,1,.75,1.88l-.93,0h0c.13-.76-.12-1.14-1-.94h0C4.72,16.84,5.19,16.61,6,16.76Z"/><path class="cls-3" d="M8.86,15.77c-.24-.56-1.08-.74-1-1.53s.65-.28,1-.45h0c-.09.72-.14,1.41.94,1.18h0C9.94,15.74,9.56,15.93,8.86,15.77Z"/><path class="cls-4" d="M2.09,17.81c0,.28,0,.56,0,.84l0,1.1c0,.26,0,.53,0,.79l-.18-.94c0-.3,0-.59,0-.89C2,18.44,1.77,18,2.09,17.81Z"/><path class="cls-4" d="M19.58,20.78a2.85,2.85,0,0,1-2.12-2.1c0-.54.11-1.25-.86-.91h-.06l0-.05c-.09-.32.16-.84-.46-.87s-.33-.43-.37-.73,0-.45.31-.48a.6.6,0,0,1,.72.41c.23.77.52.61.85.07a.72.72,0,0,0,.64.65c-.51.08-.48.49-.52.86-.1.73-.33,1.58,1,1.05l0,0c-.17.81.14,1.13.95.95l0,0,0,1.19Z"/><path class="cls-3" d="M21.43,20.79l2.79-.22c.05.43.06.84-.44,1h-1a1.55,1.55,0,0,0-1.16-.05c-.24-.22-.07-.54-.19-.79Z"/><path class="cls-3" d="M20.49,19.63c.92-.11,1.15.34.94,1.16v0h-1l0,0V19.61Z"/><path class="cls-3" d="M25.41,19.6c0,.66,0,1.29-.95,1.19l0-.3C24.21,19.6,24.85,19.65,25.41,19.6Z"/><path class="cls-3" d="M19.56,18.69c.75-.12,1.14.11.93.94l0,0h-1l0,0v-.94Z"/><path class="cls-3" d="M18.63,17.76c.86-.24,1,.2.93.93h-.93l0,0v-.94Z"/><path class="cls-3" d="M17.69,17.64c0-.37,0-.78.52-.86.69.09.24.67.42,1h0Z"/><path class="cls-4" d="M24.42,20.49l0,.3v.93h0l-.69-.1c.5-.2.49-.61.44-1A.24.24,0,0,1,24.42,20.49Z"/><path class="cls-1" d="M2.08,19.75l0-1.1,2.78,0v.94Z"/><path class="cls-4" d="M1.1,20.72h0Z"/><path class="cls-3" d="M4.88,19.63v-1l0,0h.94C5.92,19.41,5.78,19.89,4.88,19.63Z"/><path class="cls-3" d="M7,17.73c-.08-.66.19-1,.88-.89C8,17.56,7.74,17.89,7,17.73Z"/><path class="cls-3" d="M7.93,16.75c-.08-.66.22-.93.87-.85C9,16.66,8.64,16.89,7.93,16.75Z"/><path class="cls-1" d="M23.78,21.61l.69.1,0,.92h-3a.26.26,0,0,1-.17-.05c.6-1-.09-.95-.76-.89l0,0,0-1h1c.12.25-.05.57.19.79a1.6,1.6,0,0,0,1.16.05Z"/><path class="cls-3" d="M16.6,17.77c1-.34.83.37.86.91C16.66,18.87,16.47,18.47,16.6,17.77Z"/><path class="cls-3" d="M20.49,20.77l0,1c-.61,0-1.18-.08-.93-.95h.93Z"/><path class="cls-3" d="M20.49,21.7c.67-.06,1.36-.13.76.89C20.4,22.81,20.49,22.22,20.49,21.7Z"/><path class="cls-3" d="M4.94,1.17c.29,0,.59-.1.87.08,0,.28,0,.55,0,.83l-.92,0,0,0V1.2Z"/><path class="cls-4" d="M5.79,2.08c0-.28,0-.55,0-.83.28.24.07.62.24.89l-.13.23Z"/><path class="cls-4" d="M4,1.12C4.24.89,4.58,1,4.89,1a.13.13,0,0,1,.05.2l0,0Z"/><path class="cls-1" d="M17.43,9.84l.1-.46.18-.5a.9.9,0,0,0,1,.21c.87-.4.89.16.91.74l-.51.15L19,9.93,18.9,10l-1,0Z"/><path class="cls-4" d="M19.57,9.84a1.89,1.89,0,0,1,1.13.06l-1.16.1,0-.09Z"/><path class="cls-4" d="M18.9,10,19,9.93l.09.05Z"/><path class="cls-1" d="M8.84,7c-.21-.84.19-1.07.94-1l0,1,0,0Z"/><path class="cls-1" d="M9.75,7.06c.35,0,.76-.27,1,.19a.49.49,0,0,1-.09.62.74.74,0,0,1-.53.09c-.59-.12-.22-.62-.34-.92Z"/><path class="cls-1" d="M9.78,15c-1.08.23-1-.46-.94-1.18C9.82,13.64,9.88,14.24,9.78,15Z"/><path class="cls-3" d="M22.35,8c0,.28,0,.56,0,.84a1.41,1.41,0,0,1-.93.05h0V8l0,0Z"/><path class="cls-4" d="M21.21,9.91a.14.14,0,0,1,.18-.09C21.38,10,21.33,10,21.21,9.91Z"/><path class="cls-1" d="M24.46,4h.95a5.19,5.19,0,0,0,0,.56c0,.42-.15.62-.58.62s-.4-.34-.41-.62A5.29,5.29,0,0,1,24.46,4Z"/><path class="cls-1" d="M4,1.12l.94.08v1a13.29,13.29,0,0,0-2.82.08C2,2.05,2,1.88,2,1.7c0-.54.34-.57.76-.56S3.54,1.13,4,1.12Z"/><path class="cls-4" d="M2,1.7c0,.18.07.35.11.53s0,.56,0,.83l0,.07H2L1.87,2.07Z"/><path class="cls-1" d="M21.44,8v1c-.34,0-.69,0-1,0-.83.12-1-.32-.86-1Z"/><path class="cls-4" d="M17.71,8.88l-.18.5c0-.16,0-.32-.05-.48Z"/><path class="cls-1" d="M22.35,8l-.93,0V7l.95-.1C22.37,7.28,22.36,7.65,22.35,8Z"/><path class="cls-1" d="M5.79,2.08l.13.29v.46l-.11.35-1-.11V2.12Z"/><path class="cls-1" d="M5.82,18.69h-1v-.95C5.7,17.55,6,17.93,5.82,18.69Z"/><path class="cls-1" d="M20.51,20.79h-.93l0-1.19h1Z"/><path class="cls-1" d="M18.63,18.67h.94v.94C18.77,19.8,18.46,19.48,18.63,18.67Z"/><path class="cls-4" d="M22.79,21.61a1.6,1.6,0,0,1-1.16-.05A1.55,1.55,0,0,1,22.79,21.61Z"/></g></g></svg>