<svg xmlns="http://www.w3.org/2000/svg" viewBox="0 0 26.41 36.58"><defs><style>.cls-1{fill:#f9f8f8;}.cls-2{fill:#2372ba;}.cls-3{fill:#e82129;}.cls-4{fill:#b7c2c0;}</style></defs><g id="Calque_2" data-name="Calque 2"><g id="Calque_1-2" data-name="Calque 1"><path class="cls-1" d="M8.87,0c.43,0,1-.18,1,.59,0,.47.43.3.71.36.84.19,2-.57,2.48.86.06.19,1,.07,1.53.1s1.12-.19,1.16.69c0,.33.41.27.67.29L17.64,3q0,10.18,0,20.37c-.76-.05-1.72.68-2.12-.73-.13-.46-1-.12-1.51-.19s-1.21.27-1.41-.72c-.1-.49-.82-.16-1.24-.25-.61-.13-1.52.44-1.67-.79,0-.31-.54-.12-.83-.17Z"/><path class="cls-2" d="M8.87,0v20.5c-1.94,0-3.88,0-5.81,0-.78,0-1.07.25-1,1H1l-.95,0C0,15,0,8.5,0,2,0,1.15.24.81,1.12.93c.35,0,.85.17.95-.39S2.63,0,3,0Z"/><path class="cls-3" d="M17.65,23.36q0-10.18,0-20.37c1.82,0,3.65-.19,5.46,0,1.26.11,1.52-1,2.28-1.45.18-.11.21-.6.66-.52s.34.54.34.85q0,4.25,0,8.49,0,5.07,0,10.13c0,.46.09.82-.59,1.14A2.33,2.33,0,0,0,24.47,23c-.07.36-.25.43-.55.43C21.83,23.4,19.74,23.56,17.65,23.36Z"/><path class="cls-1" d="M1,21.51H2.09c0,4.7,0,9.4,0,14.1,0,.87-.29,1.12-1.08.91Q1,29,1,21.51Z"/><path class="cls-4" d="M1,21.51q0,7.5,0,15c-1,.29-1-.34-1-1v-14Z"/></g></g></svg>