<svg xmlns="http://www.w3.org/2000/svg" viewBox="0 0 37.71 39.55"><defs><style>.cls-1{fill:#b3a48d;}.cls-2{fill:#73624a;}.cls-3{fill:#5d513e;}.cls-4{fill:#fffde4;}.cls-5{fill:#80cfce;}.cls-6{fill:#112f52;}.cls-7{fill:#67a4d9;}.cls-8{fill:#764c23;}</style></defs><g id="Calque_2" data-name="Calque 2"><g id="Calque_1-2" data-name="Calque 1"><polygon class="cls-1" points="33.59 12.14 34.87 10.87 37.33 8.4 31.89 2.95 29.42 5.42 28.14 6.7 27.31 5.87 27.31 5.87 24.46 8.73 24.46 8.73 23.24 9.95 1.6 31.58 3.23 33.21 0.76 35.67 4.61 39.52 7.07 37.05 8.7 38.68 30.33 17.05 31.55 15.82 31.59 15.85 34.44 13 34.41 12.97 33.59 12.14"/><rect class="cls-2" x="28.66" y="1.7" width="7.7" height="6.98" transform="translate(13.2 -21.47) rotate(45)"/><rect class="cls-3" x="27.43" y="4.68" width="7.7" height="3.49" transform="translate(13.71 -20.24) rotate(45)"/><rect class="cls-4" x="13.36" y="1.15" width="10.03" height="36.36" transform="translate(19.05 -7.33) rotate(45)"/><rect class="cls-5" x="14.23" y="4.59" width="5.44" height="32.33" transform="translate(19.64 -5.91) rotate(45)"/><rect class="cls-6" x="7.81" y="20.11" width="5.44" height="14.14" transform="translate(22.3 0.52) rotate(45)"/><rect class="cls-7" x="12.24" y="21.95" width="5.44" height="1.61" transform="translate(20.47 -3.91) rotate(45)"/><rect class="cls-4" x="1.57" y="31.67" width="5.44" height="3.48" transform="translate(24.89 6.75) rotate(45)"/><rect class="cls-5" x="24.18" y="5.63" width="10.03" height="5.77" transform="translate(14.57 -18.15) rotate(45)"/><rect class="cls-1" x="0.69" y="36.36" width="2.64" height="2.64" transform="translate(27.23 9.62) rotate(45)"/><rect class="cls-8" x="0.55" y="34" width="2.64" height="2.64" transform="translate(25.53 9.02) rotate(45)"/><rect class="cls-4" x="19.07" y="0.01" width="2.15" height="12.73" transform="translate(10.41 -12.38) rotate(45)"/><rect class="cls-5" x="19.97" y="0.91" width="2.15" height="12.73" transform="translate(11.31 -12.75) rotate(45)"/></g></g></svg>