<svg xmlns="http://www.w3.org/2000/svg" viewBox="0 0 27.09 39.99"><defs><style>.cls-1{fill:#bead93;}.cls-2{fill:#fbd405;}.cls-3{fill:#e62d3c;}.cls-4{fill:#fcfcfc;}</style></defs><g id="Calque_2" data-name="Calque 2"><g id="Calque_1-2" data-name="Calque 1"><path class="cls-1" d="M27.06,5.23c0-.3.19-.74-.34-.84s-.48.4-.66.52c-.75.47-1,1.56-2.28,1.45-1.8-.16-3.63,0-5.45,0L17.07,6.3c-.26,0-.66,0-.67-.29,0-.88-.65-.66-1.15-.69s-1.48.09-1.54-.09c-.49-1.44-1.64-.67-2.48-.86-.28-.06-.7.1-.71-.37,0-.77-.54-.57-1-.58H3.72c-.41,0-.86-.1-1,.54s-.59.43-.94.39C.93,4.22.68,4.55.68,5.43c0,6.48,0,13,0,19.45l1,0-.95,0c0,4.67,0,9.34,0,14,0,.68,0,1.31,1,1,.79.2,1.08-.05,1.08-.92,0-4.7,0-9.39,0-14.09-.1-.75.2-1,1-1,1.94.05,3.87,0,5.81,0,.29.05.8-.13.84.18.15,1.22,1,.65,1.66.79.43.09,1.14-.24,1.24.25.2,1,.87.64,1.42.71s1.37-.26,1.5.19c.4,1.42,1.36.69,2.12.74,2.09.2,4.18,0,6.28.08.3,0,.48-.06.54-.43A2.38,2.38,0,0,1,26.47,25c.68-.31.59-.68.59-1.13,0-3.38,0-6.75,0-10.13C27.07,10.9,27.07,8.06,27.06,5.23Z"/><path class="cls-2" d="M16.63,22.74a.93.93,0,0,1,.57-.19,1,1,0,0,1,.41.08V3.72A1,1,0,0,1,17,4a.88.88,0,0,1-.79-.44.93.93,0,0,1-.53-.18h0a.9.9,0,0,1-.9-.62.91.91,0,0,1-.79.41A1,1,0,0,1,13,2a.88.88,0,0,1-.69.3.9.9,0,0,1-.93-.81,1,1,0,0,1-.62.21.89.89,0,0,1-.86-.56,1,1,0,0,1-.51.14.94.94,0,0,1-.52-.16V19.83l.08,0a.91.91,0,0,1,.94.8.76.76,0,0,1,.26.06.73.73,0,0,1,.3.19h.07a.9.9,0,0,1,.88.57,1.23,1.23,0,0,1,.19,0,.87.87,0,0,1,.52-.16.9.9,0,0,1,.91.65,1.53,1.53,0,0,1,.18.18l.06.16a.91.91,0,0,1,.62-.24.88.88,0,0,1,.51.15,1,1,0,0,1,.44-.09.9.9,0,0,1,.77.4.89.89,0,0,1,.34-.07A.92.92,0,0,1,16.63,22.74Z"/><path class="cls-3" d="M8.83.08V20.42c-2,0-3.92.09-5.88.07-.73,0-1.09.17-1,.94l-1.06.08L0,21.45c0-6.51,0-13,0-19.53C0,1.16.2.84,1,1,1.49,1,2,1,2,.27,2,0,2.34,0,2.56,0Z"/><path class="cls-3" d="M17.62,23.35q0-10.17,0-20.36a32,32,0,0,1,5.45,0C24.34,3,24.68,2,25.34,1.4c.21-.2.3-.47.64-.43s.36.43.36.71c0,2.6,0,5.2,0,7.8q0,5.48,0,11c0,.44.2.91-.6,1.12a2.5,2.5,0,0,0-1.21,1.23c-.25.71-.61.68-1.1.66C21.49,23.4,19.55,23.56,17.62,23.35Z"/><path class="cls-4" d="M.92,21.51,2,21.43C2,26.19,2,31,2,35.71c0,.89-.4,1-1.08.79Z"/><path class="cls-3" d="M0,7H8.83V.08H2.09s.17.94-.61.9S0,.73,0,1.92,0,7,0,7Z"/><rect class="cls-2" x="0.01" y="7.02" width="9" height="6.89" transform="translate(-0.02 0.01) rotate(-0.09)"/><path class="cls-3" d="M0,13.91v7.54l1.94,0s-.44-.93,1.3-.94,5.55-.07,5.55-.07V13.91Z"/><path class="cls-3" d="M17.61,3l-1.72-.11c0-.69-.71-.89-.71-.89-2.07.15-2.33-.24-2.33-.24A.69.69,0,0,0,12.18,1H9.92L9.69.27h0A.88.88,0,0,1,9.16.14a.85.85,0,0,1-.23,0l-.1,0V7a7.17,7.17,0,0,1,2-.3,7.35,7.35,0,0,1,1.75.22,16,16,0,0,1,2.15.78A6.59,6.59,0,0,0,17.62,8Z"/><path class="cls-3" d="M17.61,23.34l-1.16.12a1.29,1.29,0,0,1-.66-.19c-.39-.26-.41-.63-.77-.81a1,1,0,0,0-.76,0l-.62,0c-.41,0-.55,0-.68-.14a.61.61,0,0,1-.21-.29c-.07-.35-.2-.48-.31-.54s-.25,0-.51,0a3,3,0,0,1-.66,0,3.71,3.71,0,0,1-.51,0,1.55,1.55,0,0,1-.69-.08,1.15,1.15,0,0,1-.5-.87l-.73-.08V13.91a5.09,5.09,0,0,1,1.85-.55,5.52,5.52,0,0,1,2.36.36,15.06,15.06,0,0,0,4.57.73Z"/><rect class="cls-2" x="17.57" y="8" width="8.76" height="6.47" transform="translate(-0.02 0.04) rotate(-0.09)"/></g></g></svg>