<svg xmlns="http://www.w3.org/2000/svg" viewBox="0 0 24.01 20.81"><defs><style>.cls-1{fill:#4e514e;}</style></defs><g id="Calque_2" data-name="Calque 2"><g id="Calque_1-2" data-name="Calque 1"><g id="hobbies"><g id="films"><path class="cls-1" d="M24,2V18.81a2,2,0,0,1-2,2H2a1.92,1.92,0,0,1-1.41-.58A2,2,0,0,1,0,18.81V2A1.93,1.93,0,0,1,.59.59,1.93,1.93,0,0,1,2,0H22a2,2,0,0,1,1.42.59A1.92,1.92,0,0,1,24,2ZM4.8,4V2.4A.8.8,0,0,0,4,1.6H2.4a.76.76,0,0,0-.56.24.76.76,0,0,0-.24.56V4a.8.8,0,0,0,.8.8H4A.79.79,0,0,0,4.8,4Zm0,4.81V7.2a.8.8,0,0,0-.23-.56A.78.78,0,0,0,4,6.4H2.4a.76.76,0,0,0-.56.24.77.77,0,0,0-.24.56V8.81a.77.77,0,0,0,.24.56.76.76,0,0,0,.56.24H4a.78.78,0,0,0,.57-.24A.8.8,0,0,0,4.8,8.81Zm0,4.8V12a.79.79,0,0,0-.8-.8H2.4a.8.8,0,0,0-.8.8v1.6a.76.76,0,0,0,.24.56.76.76,0,0,0,.56.24H4a.8.8,0,0,0,.8-.8Zm0,4.8v-1.6A.8.8,0,0,0,4,16H2.4a.76.76,0,0,0-.56.24.76.76,0,0,0-.24.56v1.6a.74.74,0,0,0,.24.56.76.76,0,0,0,.56.24H4A.78.78,0,0,0,4.57,19,.77.77,0,0,0,4.8,18.41Zm12.81-9.6V2.4a.76.76,0,0,0-.24-.56.76.76,0,0,0-.56-.24H7.2a.77.77,0,0,0-.56.24.76.76,0,0,0-.24.56V8.81a.82.82,0,0,0,.8.8h9.61a.76.76,0,0,0,.56-.24A.77.77,0,0,0,17.61,8.81Zm0,9.6V12a.8.8,0,0,0-.8-.8H7.2a.8.8,0,0,0-.56.23A.78.78,0,0,0,6.4,12v6.4a.74.74,0,0,0,.24.56.77.77,0,0,0,.56.24h9.61a.76.76,0,0,0,.56-.24A.74.74,0,0,0,17.61,18.41ZM22.41,4V2.4a.8.8,0,0,0-.8-.8H20a.77.77,0,0,0-.56.24.76.76,0,0,0-.24.56V4a.78.78,0,0,0,.24.57A.8.8,0,0,0,20,4.8h1.6a.79.79,0,0,0,.8-.8Zm0,4.81V7.2a.8.8,0,0,0-.23-.56.78.78,0,0,0-.57-.24H20a.82.82,0,0,0-.8.8V8.81a.82.82,0,0,0,.8.8h1.6a.78.78,0,0,0,.57-.24A.8.8,0,0,0,22.41,8.81Zm0,4.8V12a.79.79,0,0,0-.8-.8H20a.8.8,0,0,0-.56.23.78.78,0,0,0-.24.57v1.6a.76.76,0,0,0,.24.56.77.77,0,0,0,.56.24h1.6a.8.8,0,0,0,.8-.8Zm0,4.8v-1.6a.8.8,0,0,0-.8-.8H20a.77.77,0,0,0-.56.24.76.76,0,0,0-.24.56v1.6a.74.74,0,0,0,.24.56.77.77,0,0,0,.56.24h1.6a.78.78,0,0,0,.57-.24A.77.77,0,0,0,22.41,18.41Z"/></g></g></g></g></svg>