<svg xmlns="http://www.w3.org/2000/svg" viewBox="0 0 24.01 12.81"><defs><style>.cls-1{fill:#4e514e;}</style></defs><g id="Calque_2" data-name="Calque 2"><g id="Calque_1-2" data-name="Calque 1"><g id="hobbies"><g id="jeux"><path class="cls-1" d="M17.61,0a6.18,6.18,0,0,1,4.53,1.88A6.16,6.16,0,0,1,24,6.4a6.17,6.17,0,0,1-1.87,4.53,6.18,6.18,0,0,1-4.53,1.88,6.27,6.27,0,0,1-4.23-1.6H10.63a6.27,6.27,0,0,1-4.23,1.6,6.17,6.17,0,0,1-4.52-1.88A6.18,6.18,0,0,1,0,6.4,6.17,6.17,0,0,1,1.88,1.88,6.17,6.17,0,0,1,6.4,0Zm-7.2,7.2V5.6a.41.41,0,0,0-.4-.4H7.6V2.8a.39.39,0,0,0-.11-.29A.4.4,0,0,0,7.2,2.4H5.6a.39.39,0,0,0-.28.11.4.4,0,0,0-.12.29V5.2H2.8a.38.38,0,0,0-.29.12.39.39,0,0,0-.11.28V7.2a.4.4,0,0,0,.11.29.38.38,0,0,0,.29.11H5.2V10a.41.41,0,0,0,.4.4H7.2a.37.37,0,0,0,.29-.12A.36.36,0,0,0,7.6,10V7.6H10a.36.36,0,0,0,.28-.11A.37.37,0,0,0,10.41,7.2Zm6.73,1.94a1.61,1.61,0,0,0,0-2.27,1.59,1.59,0,0,0-2.26,0,1.61,1.61,0,0,0,0,2.27,1.59,1.59,0,0,0,2.26,0Zm3.2-3.21a1.5,1.5,0,0,0,.47-1.13,1.51,1.51,0,0,0-.47-1.13A1.6,1.6,0,0,0,17.61,4.8a1.53,1.53,0,0,0,.47,1.13,1.59,1.59,0,0,0,2.26,0Z"/></g></g></g></g></svg>