<svg xmlns="http://www.w3.org/2000/svg" viewBox="0 0 19.86 18.31"><defs><style>.cls-1{fill:#4e514e;}</style></defs><g id="Calque_2" data-name="Calque 2"><g id="Calque_1-2" data-name="Calque 1"><g id="hobbies"><g id="mangas"><path class="cls-1" d="M18.85,3.66a1.62,1.62,0,0,1,.7.51,1.67,1.67,0,0,1,.21,1.54l-3.28,10.8a2.47,2.47,0,0,1-.91,1.29,2.4,2.4,0,0,1-1.46.51h-11a2.9,2.9,0,0,1-1.77-.63A3.36,3.36,0,0,1,.15,16.11a2.15,2.15,0,0,1,0-1.52s0-.13,0-.32,0-.33,0-.44a.71.71,0,0,0,0-.26.53.53,0,0,1,0-.23.75.75,0,0,1,.09-.25l.2-.28.2-.28a7.41,7.41,0,0,0,.53-1.09,5.71,5.71,0,0,0,.36-1.09,1,1,0,0,0,0-.36.94.94,0,0,1,0-.33,1,1,0,0,1,.2-.34,2.61,2.61,0,0,0,.21-.27A8.46,8.46,0,0,0,2.43,8a5,5,0,0,0,.29-1.07,1.48,1.48,0,0,0,0-.38.66.66,0,0,1,0-.34A1,1,0,0,1,3,5.8l.27-.27a4.44,4.44,0,0,0,.5-1,4.21,4.21,0,0,0,.33-1.15.76.76,0,0,0,0-.3.74.74,0,0,1,0-.32.71.71,0,0,1,.11-.21,2,2,0,0,1,.21-.27L4.53,2a4.11,4.11,0,0,0,.19-.37c.07-.15.13-.28.18-.42S5,1,5.09.8A2.53,2.53,0,0,1,5.32.42,1.49,1.49,0,0,1,5.64.14.8.8,0,0,1,6.07,0a2.12,2.12,0,0,1,.57.06l0,0A3.77,3.77,0,0,1,7.23,0h9.08a1.54,1.54,0,0,1,1.35.67,1.71,1.71,0,0,1,.22,1.55L14.61,13a4.55,4.55,0,0,1-.85,1.83,2.21,2.21,0,0,1-1.53.41H1.87a.53.53,0,0,0-.46.18.56.56,0,0,0,0,.51c.19.56.76.84,1.72.84h11a1.26,1.26,0,0,0,.67-.19.84.84,0,0,0,.42-.49L18.79,4.34a2.22,2.22,0,0,0,.06-.68Zm-13,3.59a.32.32,0,0,0,0,.27.25.25,0,0,0,.23.11h7.25a.53.53,0,0,0,.31-.11.54.54,0,0,0,.19-.27l.26-.76a.31.31,0,0,0,0-.27.26.26,0,0,0-.24-.12H6.62a.6.6,0,0,0-.5.39Zm1-3a.32.32,0,0,0,0,.27.25.25,0,0,0,.23.11h7.25a.53.53,0,0,0,.31-.11.54.54,0,0,0,.19-.27l.25-.77a.27.27,0,0,0-.26-.38H7.61a.48.48,0,0,0-.3.12.5.5,0,0,0-.2.26Z"/></g></g></g></g></svg>