<svg xmlns="http://www.w3.org/2000/svg" viewBox="0 0 19.16 16.6"><defs><style>.cls-1{fill:#4e514e;}</style></defs><g id="Calque_2" data-name="Calque 2"><g id="Calque_1-2" data-name="Calque 1"><g id="hobbies"><g id="photo"><path class="cls-1" d="M16.6,2.55a2.46,2.46,0,0,1,1.81.75,2.46,2.46,0,0,1,.75,1.81v8.94A2.56,2.56,0,0,1,16.6,16.6h-14a2.45,2.45,0,0,1-1.8-.75A2.45,2.45,0,0,1,0,14.05V5.11A2.46,2.46,0,0,1,.75,3.3a2.45,2.45,0,0,1,1.8-.75H4.79L5.3,1.2A1.86,1.86,0,0,1,6,.35,1.82,1.82,0,0,1,7,0h5.11a1.8,1.8,0,0,1,1,.35,1.88,1.88,0,0,1,.7.85l.51,1.35ZM6.42,12.74a4.32,4.32,0,0,0,3.16,1.31,4.47,4.47,0,0,0,4.47-4.47A4.47,4.47,0,0,0,9.58,5.11,4.47,4.47,0,0,0,5.11,9.58,4.34,4.34,0,0,0,6.42,12.74ZM7.55,7.55a2.85,2.85,0,0,1,4.06,0,2.87,2.87,0,0,1,0,4.06,2.87,2.87,0,0,1-4.06,0,2.85,2.85,0,0,1,0-4.06Z"/></g></g></g></g></svg>