<svg xmlns="http://www.w3.org/2000/svg" viewBox="0 0 19.14 20.74"><defs><style>.cls-1{fill:#4e514e;}</style></defs><g id="Calque_2" data-name="Calque 2"><g id="Calque_1-2" data-name="Calque 1"><g id="hobbies"><g id="rap"><path class="cls-1" d="M19.14,1.2v14a1.64,1.64,0,0,1-.42,1.11,2.78,2.78,0,0,1-1.07.76,7.61,7.61,0,0,1-1.29.4,6.66,6.66,0,0,1-1.21.13,6.65,6.65,0,0,1-1.2-.13,7.09,7.09,0,0,1-1.29-.4,2.78,2.78,0,0,1-1.07-.76,1.64,1.64,0,0,1-.42-1.11A1.67,1.67,0,0,1,11.59,14a2.87,2.87,0,0,1,1.07-.75,7.09,7.09,0,0,1,1.29-.4,5.85,5.85,0,0,1,1.2-.13,5.72,5.72,0,0,1,2.4.49V6.55L8,9.51v8.83a1.64,1.64,0,0,1-.43,1.11,2.78,2.78,0,0,1-1.07.76,7.09,7.09,0,0,1-1.29.4,6.65,6.65,0,0,1-1.2.13,6.46,6.46,0,0,1-1.2-.13,7.09,7.09,0,0,1-1.29-.4,2.82,2.82,0,0,1-1.08-.76A1.64,1.64,0,0,1,0,18.34a1.67,1.67,0,0,1,.42-1.11,2.91,2.91,0,0,1,1.08-.75,7.09,7.09,0,0,1,1.29-.4A5.71,5.71,0,0,1,4,16a5.68,5.68,0,0,1,2.39.49v-12a1.15,1.15,0,0,1,.24-.71,1.18,1.18,0,0,1,.61-.44L17.6.05a1.2,1.2,0,0,1,1.19.3A1.15,1.15,0,0,1,19.14,1.2Z"/></g></g></g></g></svg>